<svg width="51" height="10" viewBox="0 0 51 10" fill="none" xmlns="http://www.w3.org/2000/svg">
<path d="M50.4243 5.42427C50.6586 5.18995 50.6586 4.81005 50.4243 4.57574L46.6059 0.757361C46.3716 0.523046 45.9917 0.523046 45.7574 0.757361C45.523 0.991676 45.523 1.37157 45.7574 1.60589L49.1515 5L45.7574 8.39411C45.523 8.62843 45.523 9.00833 45.7574 9.24264C45.9917 9.47696 46.3716 9.47696 46.6059 9.24264L50.4243 5.42427ZM25 5L25 5.6L50 5.6L50 5L50 4.4L25 4.4L25 5Z" fill="#202020"/>
<path d="M0 5L25 5" stroke="#202020" stroke-width="1.2"/>
</svg>
